<svg width="20" height="20" viewBox="0 0 20 20" fill="none" xmlns="http://www.w3.org/2000/svg">
<path d="M13.5156 11.1719C16.4236 11.1719 18.7891 8.80637 18.7891 5.89844C18.7891 2.99051 16.4236 0.625 13.5156 0.625C10.6077 0.625 8.24219 2.99051 8.24219 5.89844C8.24219 8.80637 10.6077 11.1719 13.5156 11.1719ZM14.1016 6.48438H12.9297C11.9604 6.48438 11.1719 5.69586 11.1719 4.72656C11.1719 3.75727 11.9604 2.96875 12.9297 2.96875V1.79688H14.1016V2.96875C15.0709 2.96875 15.8594 3.75727 15.8594 4.72656H14.6875C14.6875 4.40328 14.4248 4.14062 14.1016 4.14062H12.9297C12.6064 4.14062 12.3438 4.40328 12.3438 4.72656C12.3438 5.04984 12.6064 5.3125 12.9297 5.3125H14.1016C15.0709 5.3125 15.8594 6.10102 15.8594 7.07031C15.8594 8.03961 15.0709 8.82812 14.1016 8.82812V10H12.9297V8.82812C11.9604 8.82812 11.1719 8.03961 11.1719 7.07031H12.3438C12.3438 7.39359 12.6064 7.65625 12.9297 7.65625H14.1016C14.4248 7.65625 14.6875 7.39359 14.6875 7.07031C14.6875 6.74703 14.4248 6.48438 14.1016 6.48438Z" fill="#D64242"/>
<path d="M0 12.3438H2.34375V17.6172H0V12.3438Z" fill="white"/>
<path d="M16.9954 13.7447L13.0813 15.8594H7.07031V14.6875H12.9297V14.1016C12.9297 13.1307 12.1427 12.3438 11.1719 12.3438H9.0507C8.61355 11.9804 7.46512 11.1719 5.89844 11.1719C4.93598 11.1719 4.09449 11.4773 3.51562 11.797V17.7536L11.2548 19.375L20 14.9267C20 14.9267 19.6896 14.3845 19.686 14.3782C19.1541 13.4623 17.9214 13.2305 16.9954 13.7447Z" fill="white"/>
</svg>
