<svg width="20" height="20" viewBox="0 0 20 20" fill="none" xmlns="http://www.w3.org/2000/svg">
<path d="M3.75 5.20834V1.45834C3.75 1.24168 3.775 1.03334 3.83333 0.833344H1.45833C0.658333 0.833344 0 1.49168 0 2.29168V6.04168C0 6.84168 0.658333 7.50001 1.45833 7.50001H1.76667L2.83333 8.91668C2.95 9.06668 3.125 9.15835 3.30833 9.16668H3.33333C3.51667 9.16668 3.68333 9.09168 3.8 8.95001L5.05 7.52501C4.275 7.04168 3.75 6.18334 3.75 5.20834Z" fill="white"/>
<path d="M18.5417 0.833344H16.1667C16.225 1.03334 16.25 1.24168 16.25 1.45834V5.20834C16.25 6.18334 15.725 7.04168 14.95 7.52501L16.2 8.95001C16.3167 9.09168 16.4833 9.16668 16.6667 9.16668H16.6917C16.875 9.15835 17.05 9.06668 17.1667 8.91668L18.225 7.50001H18.5417C19.3417 7.50001 20 6.84168 20 6.04168V2.29168C20 1.49168 19.3417 0.833344 18.5417 0.833344Z" fill="white"/>
<path d="M10 8.33333C9.9925 8.33333 9.98417 8.33333 9.97667 8.33333C9.78833 8.32584 9.61333 8.23417 9.5 8.08333L8.4375 6.66667H6.45833C5.65417 6.66667 5 6.0125 5 5.20833V1.45833C5 0.654167 5.65417 0 6.45833 0H13.5417C14.3458 0 15 0.654167 15 1.45833V5.20833C15 6.0125 14.3458 6.66667 13.5417 6.66667H11.7417L10.47 8.12C10.3517 8.25584 10.18 8.33333 10 8.33333Z" fill="#D64242"/>
<path d="M3.33334 14.1667C4.25381 14.1667 5.00001 13.4205 5.00001 12.5C5.00001 11.5796 4.25381 10.8334 3.33334 10.8334C2.41286 10.8334 1.66667 11.5796 1.66667 12.5C1.66667 13.4205 2.41286 14.1667 3.33334 14.1667Z" fill="white"/>
<path d="M5.55833 15.3333C4.71667 15.9667 4.16667 16.9833 4.16667 18.125V18.3333H0.625C0.283333 18.3333 0 18.05 0 17.7083V17.2917C0 16.025 1.025 15 2.29167 15H4.375C4.80833 15 5.21667 15.125 5.55833 15.3333Z" fill="white"/>
<path d="M16.6667 14.1667C17.5871 14.1667 18.3333 13.4205 18.3333 12.5C18.3333 11.5796 17.5871 10.8334 16.6667 10.8334C15.7462 10.8334 15 11.5796 15 12.5C15 13.4205 15.7462 14.1667 16.6667 14.1667Z" fill="white"/>
<path d="M20 17.2917V17.7083C20 18.05 19.7167 18.3333 19.375 18.3333H15.8333V18.125C15.8333 16.9833 15.2833 15.9667 14.4417 15.3333C14.7833 15.125 15.1917 15 15.625 15H17.7083C18.975 15 20 16.025 20 17.2917Z" fill="white"/>
<path d="M10 14.5833C11.3807 14.5833 12.5 13.464 12.5 12.0833C12.5 10.7026 11.3807 9.58331 10 9.58331C8.61929 9.58331 7.5 10.7026 7.5 12.0833C7.5 13.464 8.61929 14.5833 10 14.5833Z" fill="white"/>
<path d="M12.2917 15.8333H7.70834C6.44417 15.8333 5.41667 16.8608 5.41667 18.125V19.375C5.41667 19.72 5.69667 20 6.04167 20H13.9583C14.3033 20 14.5833 19.72 14.5833 19.375V18.125C14.5833 16.8608 13.5558 15.8333 12.2917 15.8333Z" fill="white"/>
</svg>
