<svg width="20" height="20" viewBox="0 0 20 20" fill="none" xmlns="http://www.w3.org/2000/svg">
<path d="M19.6643 9.10436L16.6332 6.07326V2.57183C16.6332 1.93873 16.1202 1.42564 15.4861 1.42564C14.8536 1.42564 14.3405 1.93873 14.3405 2.57183V3.7806L12.0836 1.52363C10.9678 0.408402 9.02774 0.41038 7.91445 1.52565L0.335579 9.10436C-0.111819 9.55265 -0.111819 10.278 0.335579 10.7256C0.783179 11.1738 1.50995 11.1738 1.95739 10.7256L9.53554 3.14669C9.78241 2.90111 10.2175 2.90111 10.4631 3.14596L18.0426 10.7256C18.2673 10.9497 18.5603 11.0612 18.8533 11.0612C19.1468 11.0612 19.4403 10.9496 19.6644 10.7256C20.1119 10.278 20.1119 9.55269 19.6643 9.10436Z" fill="#D64242"/>
<path d="M10.3982 5.32243C10.178 5.10236 9.82146 5.10236 9.60191 5.32243L2.93552 11.9868C2.83027 12.0921 2.7706 12.2357 2.7706 12.3856V17.2464C2.7706 18.387 3.69543 19.3118 4.83601 19.3118H8.13655V14.2003H11.8628V19.3118H15.1634C16.3039 19.3118 17.2288 18.387 17.2288 17.2464V12.3856C17.2288 12.2357 17.1696 12.0921 17.0638 11.9868L10.3982 5.32243Z" fill="white"/>
</svg>
